<svg xmlns="http://www.w3.org/2000/svg" xmlns:xlink="http://www.w3.org/1999/xlink" width="36px" height="38px" viewBox="0 0 36 38">
	<title>
		Driver app@2x
	</title>
	<desc>
		Created with Sketch.
	</desc>
	<g id="Page-1" stroke="none" stroke-width="1" fill="none" fill-rule="evenodd">
		<g id="Main-Copy" transform="translate(-1134.000000, -279.000000)" fill="#fff" fill-rule="nonzero">
			<g id="Driver-app" transform="translate(1134.846238, 279.000000)">
				<path d="M30.9975556,34.1333333 L22.1481481,34.1333333 C21.799037,34.1333333 21.5160741,34.4163704 21.5160741,34.7654074 C21.5160741,35.1145185 21.7991111,35.3974815 22.1481481,35.3974815 L30.9975556,35.3974815 C31.3466667,35.3974815 31.6296296,35.1144444 31.6296296,34.7654074 C31.6296296,34.4163704 31.3466667,34.1333333 30.9975556,34.1333333 Z" id="Shape_15_">
				</path>
				<path d="M7.98911111,25.4647407 C7.04925926,25.8831111 6.41711111,26.7860741 6.34562963,27.8123704 C6.34562963,29.5822222 8.56681481,30.9728889 11.4024444,30.9728889 C14.2380741,30.9728889 16.4592593,29.5822222 16.4592593,27.8123704 C16.3873333,26.782963 15.7522963,25.8777037 14.8088148,25.4597037 C16.0873333,24.3964444 17.2737778,23.2271111 18.3555556,21.9642222 L18.3555556,34.7654815 C18.3576296,36.5100741 19.7714074,37.9238519 21.5160741,37.926 L31.6296296,37.926 C33.3742222,37.9239259 34.788,36.5101481 34.7901481,34.7654815 L34.7901481,15.8025185 C34.7880741,14.0579259 33.3742963,12.6441481 31.6296296,12.642 L22.7088148,12.642 C22.7539259,12.2220741 22.7777778,11.8001481 22.7802222,11.3777778 C22.7802222,5.094 17.6862222,-5.68434189e-14 11.4024444,-5.68434189e-14 C5.11866667,-5.68434189e-14 0.0246666667,5.094 0.0246666667,11.3777778 C0.0246666667,17.7316296 4.71296296,22.7403704 7.98911111,25.4647407 Z M15.195037,27.8123704 C15.195037,28.7093333 13.6375556,29.7086667 11.4024444,29.7086667 C9.16733333,29.7086667 7.60985185,28.7093333 7.60985185,27.8123704 C7.60985185,27.2631111 8.17874074,26.7042963 9.08325926,26.3377037 C10.1786667,27.1708148 10.9599259,27.6511852 11.075037,27.7213333 C11.2762963,27.8431852 11.5285926,27.8431852 11.7299259,27.7213333 C11.8057778,27.6751852 12.5952593,27.1903704 13.7153333,26.3351111 C14.6223704,26.7011111 15.195037,27.2611852 15.195037,27.8123704 L15.195037,27.8123704 Z M33.5259259,15.8024444 L33.5259259,34.7654074 C33.5259259,35.8126667 32.6768889,36.6617037 31.6296296,36.6617037 L21.5160741,36.6617037 C20.4688148,36.6617037 19.6197778,35.8126667 19.6197778,34.7654074 L19.6197778,15.8024444 C19.62,14.8985926 20.2580741,14.1205926 21.1443704,13.9434074 L21.8656296,15.3865185 C22.184963,16.0305926 22.8426667,16.437037 23.5615556,16.4345185 L29.5842222,16.4345185 C30.3031111,16.437037 30.9608148,16.0305926 31.2801481,15.3865185 L32.0014074,13.9434074 C32.8876296,14.1205926 33.5257037,14.8986667 33.5259259,15.8024444 L33.5259259,15.8024444 Z M22.5388148,13.9061481 L30.6068889,13.9061481 L30.1492593,14.8208148 C30.042963,15.0355556 29.8237778,15.1711111 29.5841481,15.1703704 L23.5614815,15.1703704 C23.3218519,15.1711111 23.1026667,15.0355556 22.9963704,14.8208148 L22.5388148,13.9061481 Z M11.4024444,1.26422222 C16.9852593,1.27081481 21.5094074,5.79496296 21.516,11.3777778 C21.5131852,11.8031111 21.4863704,12.2279259 21.4357037,12.6502222 C19.7248148,12.6937037 18.3594074,14.091037 18.3554815,15.8025185 L18.3554815,19.9332593 C16.4084444,22.4641481 14.0596296,24.6585926 11.4023704,26.4293333 C9.63259259,25.258 1.28888889,19.3144444 1.28888889,11.3777778 C1.29548148,5.79496296 5.81962963,1.27081481 11.4024444,1.26422222 L11.4024444,1.26422222 Z" id="Shape_14_">
				</path>
				<path d="M18.3555556,11.3777778 C18.3555556,7.5377037 15.2425185,4.42466667 11.4024444,4.42466667 C7.56237037,4.42466667 4.44940741,7.5377037 4.44940741,11.3777778 C4.44940741,15.2178519 7.56244444,18.3308889 11.4025185,18.3308889 C15.2406667,18.3263704 18.351037,15.216 18.3555556,11.3777778 Z M5.71355556,11.3777778 C5.71355556,8.23592593 8.26059259,5.68888889 11.4024444,5.68888889 C14.5442963,5.68888889 17.0913333,8.23592593 17.0913333,11.3777778 C17.0913333,14.5196296 14.5442963,17.0666667 11.4024444,17.0666667 C8.26214815,17.0628148 5.71740741,14.5180741 5.71355556,11.3777778 L5.71355556,11.3777778 Z" id="Shape_13_">
				</path>
				<path d="M30.8122963,21.3061481 C31.0518519,21.0581481 31.0484444,20.6638519 30.8045926,20.4200741 C30.5607407,20.1762222 30.1665185,20.1728148 29.9185185,20.4123704 L29.6707407,20.6601481 C27.8498519,19.2406667 25.2971111,19.2406667 23.4761481,20.6601481 L23.2283704,20.4123704 C22.9803704,20.1728148 22.5860741,20.1762222 22.3422963,20.4200741 C22.0984444,20.6639259 22.095037,21.0581481 22.3345926,21.3061481 L22.5823704,21.5539259 C21.1628889,23.3748148 21.1628889,25.9275556 22.5823704,27.7485185 L22.3345926,27.9962963 C22.1702963,28.155037 22.1043704,28.39 22.1622222,28.611037 C22.2200741,28.8320741 22.3926667,29.0045926 22.6136296,29.0624444 C22.8345926,29.1202963 23.0696296,29.0543704 23.2283704,28.8900741 L23.4761481,28.6422963 C25.297037,30.0617778 27.8497778,30.0617778 29.6707407,28.6422963 L29.9185185,28.8900741 C30.1665185,29.1296296 30.5608148,29.1262222 30.8045926,28.8823704 C31.0484444,28.6385185 31.0518519,28.2442963 30.8122963,27.9962963 L30.5645185,27.7485185 C31.984,25.9276296 31.984,23.3748889 30.5645185,21.5539259 L30.8122963,21.3061481 Z M30.3654074,24.6518519 C30.3665926,25.4392593 30.1204444,26.2071111 29.6618519,26.8471111 L29.5481481,26.7333333 C29.3001481,26.4937778 28.9058519,26.4971852 28.6620741,26.741037 C28.4182222,26.9848889 28.4148148,27.3791111 28.6543704,27.6271111 L28.7681481,27.7408889 C27.454963,28.678963 25.6908148,28.678963 24.3775556,27.7408889 L24.4913333,27.6271111 C24.7308889,27.3791111 24.7274815,26.9848148 24.4836296,26.741037 C24.2397778,26.4971852 23.8455556,26.4937778 23.5975556,26.7333333 L23.4837778,26.8471111 C22.5457037,25.5339259 22.5457037,23.7697778 23.4837778,22.4565185 L23.5975556,22.5702963 C23.8455556,22.8098519 24.2398519,22.8064444 24.4836296,22.5625926 C24.7274815,22.3187407 24.7308889,21.9245185 24.4913333,21.6765185 L24.3775556,21.5627407 C25.6907407,20.6246667 27.4548889,20.6246667 28.7681481,21.5627407 L28.6543704,21.6765185 C28.4900741,21.8352593 28.4241481,22.0702222 28.482,22.2912593 C28.5398519,22.5122963 28.7124444,22.6848889 28.9334074,22.7426667 C29.1543704,22.8005185 29.3894074,22.7345926 29.5481481,22.5702963 L29.6619259,22.4565185 C30.1205185,23.0965926 30.3665926,23.8644444 30.3654074,24.6518519 Z" id="Shape_12_">
				</path>
				<circle id="Oval" cx="26.5728148" cy="24.6518519" r="1">
				</circle>
			</g>
		</g>
	</g>
</svg>
